# xmcd
#
# Track frame offsets:
# 183
# 18063
# 32478
#
# Disc length: 586 seconds
#
# Revision: 1
# Processed by: cddbd v1.4PL0 Copyright (c) Steve Scherf et al.
# Submitted via: CedeCatalogueitor 2.5 http://usuarios.lycos.es/kakasboy
#
DISCID=12024803
DTITLE=PAUL CARRACK - EYES OF BLUE - EP
DYEAR=1995
DGENRE=
TTITLE0=Eyes Of Blue
TTITLE1=Over My Shoulder
TTITLE2=People Get Ready
EXTD=
EXTT0=
EXTT1=
EXTT2=
PLAYORDER=
